<?xml version="1.0" encoding="utf-8"?>
<!-- Generator: Adobe Illustrator 16.0.0, SVG Export Plug-In . SVG Version: 6.00 Build 0)  -->
<!DOCTYPE svg PUBLIC "-//W3C//DTD SVG 1.1//EN" "http://www.w3.org/Graphics/SVG/1.1/DTD/svg11.dtd">
<svg version="1.1" id="Layer_1" xmlns="http://www.w3.org/2000/svg" xmlns:xlink="http://www.w3.org/1999/xlink" x="0px" y="0px"
	 width="841.89px" height="583.932px" viewBox="174.33 128.979 841.89 583.932"
	 enable-background="new 174.33 128.979 841.89 583.932" xml:space="preserve">
<g>
	<g>
		<path fill="#56453B" d="M982.212,386.938H208.337c-18.781,0-34.007,15.226-34.007,34.009c0,18.782,15.226,34.008,34.007,34.008
			h773.875c18.783,0,34.008-15.226,34.008-34.008S1000.996,386.938,982.212,386.938z"/>
	</g>
</g>
<g>
	<g>
		<path fill="#56453B" d="M982.212,128.979H208.337c-18.781,0-34.007,15.227-34.007,34.008c0,18.781,15.226,34.008,34.007,34.008
			h773.875c18.783,0,34.008-15.227,34.008-34.008C1016.22,144.206,1000.996,128.979,982.212,128.979z"/>
	</g>
</g>
<g>
	<g>
		<path fill="#56453B" d="M982.212,644.896H208.337c-18.781,0-34.007,15.225-34.007,34.008c0,18.781,15.226,34.007,34.007,34.007
			h773.875c18.783,0,34.008-15.226,34.008-34.007C1016.22,660.121,1000.996,644.896,982.212,644.896z"/>
	</g>
</g>
</svg>
